<svg height="512pt" viewBox="0 0 512.00049 512" width="512pt" xmlns="http://www.w3.org/2000/svg"><path d="m512 210c0 36.46875-9.5 72.402344-27.472656 103.910156-5.472656 9.59375-17.6875 12.933594-27.28125 7.464844-9.59375-5.476562-12.9375-17.691406-7.460938-27.285156 14.53125-25.480469 22.214844-54.558594 22.214844-84.089844 0-93.738281-76.261719-170-170-170s-170 76.261719-170 170 76.261719 170 170 170c29.171875 0 57.941406-7.507812 83.195312-21.710938 9.628907-5.410156 21.824219-2 27.238282 7.628907 5.414062 9.628906 2 21.820312-7.628906 27.234375-31.230469 17.566406-66.777344 26.847656-102.804688 26.847656-50.476562 0-96.847656-17.90625-133.105469-47.695312l-134.800781 133.886718c-3.898438 3.871094-8.996094 5.808594-14.09375 5.808594-5.140625 0-10.28125-1.96875-14.191406-5.90625-7.78125-7.835938-7.738282-20.5.097656-28.285156l134.621094-133.703125c-30.285156-36.402344-48.527344-83.160157-48.527344-134.105469 0-115.792969 94.207031-210 210-210s210 94.207031 210 210zm-181 80v-40h-60v40c0 11.046875-8.953125 20-20 20s-20-8.953125-20-20v-128c0-38.597656 31.402344-70 70-70s70 31.402344 70 70v128c0 11.046875-8.953125 20-20 20s-20-8.953125-20-20zm0-80v-48c0-16.542969-13.457031-30-30-30s-30 13.457031-30 30v48zm0 0"/></svg>