<svg height="444.016pt" viewBox="0 0 444.016 444.016" width="444.016pt" xmlns="http://www.w3.org/2000/svg"><path d="m407.304688 169.265625 6.992187-58.28125-54.007813-23.039063c-1.898437-.8125-3.40625-2.320312-4.21875-4.21875l-23.039062-54.007812-58.277344 7c-2.042968.25-4.101562-.304688-5.746094-1.542969l-47-35.175781-47 35.199219c-1.640624 1.242187-3.703124 1.792969-5.742187 1.542969l-58.28125-7-23.03125 54.011718c-.8125 1.894532-2.324219 3.40625-4.226563 4.214844l-54.007812 23.039062 2.769531 23h85.519531v16h8c35.328126-.039062 63.960938-28.671874 64-64v-32c0-4.417968 3.582032-8 8-8h16c22.082032.027344 39.972657 17.917969 40 40v64h78.640626c17.144531-.320312 31.644531 12.625 33.261718 29.695313.628906 8.421875-2.117187 16.742187-7.628906 23.136719 8.507812 4.941406 14.230469 13.5625 15.476562 23.324218 1.242188 9.761719-2.132812 19.542969-9.132812 26.460938-1.839844 1.839844-3.894531 3.449219-6.121094 4.800781 6.757813 8.046875 9.136719 18.898438 6.359375 29.035157-2.777343 10.132812-10.355469 18.261718-20.269531 21.738281 6.574219 9.816406 7.203125 22.453125 1.640625 32.875s-16.414063 16.933593-28.226563 16.933593h-200v16h-24.207031l17.183594 40.289063 58.28125-7c.3125-.039063.632813-.058594.949219-.058594 1.730468 0 3.417968.5625 4.800781 1.601563l46.992187 35.175781 47-35.199219c1.644532-1.234375 3.703126-1.785156 5.746094-1.542968l58.277344 7 23.03125-54.007813c.8125-1.898437 2.328125-3.410156 4.226562-4.21875l54.007813-23.039063-6.992187-58.28125c-.246094-2.042968.300781-4.101562 1.535156-5.75l35.175781-46.96875-35.199219-46.992187c-1.226562-1.652344-1.765625-3.710937-1.511718-5.75zm0 0"/><path d="m214.007812 62.007812h-8v24c-.046874 44.164063-35.835937 79.953126-80 80h-8v176h200c8.835938 0 16-7.164062 16-16 0-8.835937-7.164062-16-16-16h-8c-4.417968 0-8-3.582031-8-8 0-4.417968 3.582032-8 8-8h24c8.835938 0 16-7.164062 16-16 0-8.835937-7.164062-16-16-16h-16c-4.417968 0-8-3.582031-8-8 0-4.417968 3.582032-8 8-8h24c4.246094.011719 8.316407-1.679687 11.304688-4.695312 3.316406-3.257812 5.015625-7.820312 4.640625-12.457031-1.097656-8.660157-8.578125-15.082031-17.304687-14.847657h-22.640626c-4.417968 0-8-3.582031-8-8 0-4.417968 3.582032-8 8-8h16c4.246094.011719 8.316407-1.679687 11.304688-4.695312 3.316406-3.257812 5.015625-7.820312 4.640625-12.457031-1.097656-8.660157-8.578125-15.082031-17.304687-14.847657h-86.640626c-4.417968 0-8-3.582031-8-8v-72c0-13.253906-10.746093-24-24-24zm0 0"/><path d="m83.726562 356.070312c1.019532.453126 1.929688 1.113282 2.671876 1.9375h15.609374v-208h-67.601562l2.304688 19.257813c.25 2.042969-.300782 4.101563-1.535157 5.75l-35.175781 46.992187 35.199219 46.992188c1.234375 1.648438 1.785156 3.707031 1.535156 5.753906l-6.992187 58.277344zm0 0"/></svg>